<svg xmlns="http://www.w3.org/2000/svg" viewBox="0 0 160 130" fill="none">
  <defs>
    <linearGradient id="orbit" x1="20" y1="18" x2="138" y2="110">
      <stop stop-color="#45e8ff"/>
      <stop offset=".5" stop-color="#10cdb1"/>
      <stop offset="1" stop-color="#e9f629"/>
    </linearGradient>
    <linearGradient id="letter" x1="47" y1="112" x2="112" y2="30">
      <stop stop-color="#118fd9"/>
      <stop offset=".62" stop-color="#08d8bd"/>
      <stop offset="1" stop-color="#59ebcb"/>
    </linearGradient>
  </defs>
  <path d="M27 73C16 37 48 12 85 16c24 2 38 15 43 30" stroke="url(#orbit)" stroke-width="7" stroke-linecap="round"/>
  <path d="M45 117 68 47c7-18 20-25 39-22-13 3-20 11-25 24l-9 25c20-9 42-22 67-43" stroke="url(#letter)" stroke-width="10" stroke-linecap="round" stroke-linejoin="round"/>
  <path d="M68 103c11-13 20-12 30-1 8 9 16 8 25 1-18 15-37 16-55 0Z" fill="url(#orbit)"/>
  <path d="m132 24 12-7-4 11 7 5-10 1-5 9-1-11-9-4 10-4Z" fill="#eff52b"/>
  <path d="M127 34c5-5 9-9 14-14" stroke="#eff52b" stroke-width="3" stroke-linecap="round"/>
  <path d="m22 91 3 7 7 2-7 3-3 7-3-7-7-3 7-2 3-7Z" fill="#59e9ff"/>
</svg>
